<?xml version="1.0" encoding="UTF-8" standalone="no"?><!DOCTYPE svg PUBLIC "-//W3C//DTD SVG 1.1//EN" "http://www.w3.org/Graphics/SVG/1.1/DTD/svg11.dtd"><svg width="100%" height="100%" viewBox="0 0 170 524" version="1.1" xmlns="http://www.w3.org/2000/svg" xmlns:xlink="http://www.w3.org/1999/xlink" xml:space="preserve" xmlns:serif="http://www.serif.com/" style="fill-rule:evenodd;clip-rule:evenodd;stroke-linejoin:round;stroke-miterlimit:2;"><path d="M30.061,275.956c-0.461,2.242 -0.924,4.467 -1.01,6.868c-1.138,-2.19 -1.309,-4.73 -1.287,-7.134c0.076,-2.427 0.442,-4.834 1.186,-7.188c0.195,-0.588 0.4,-1.174 0.652,-1.759l0.321,-0.76c0.11,-0.231 0.174,-0.489 0.272,-0.729c0.335,-0.992 0.57,-2.055 0.739,-3.148c0.165,-1.092 0.288,-2.22 0.305,-3.358c0.017,-0.506 0.02,-1.012 0.004,-1.523c-0.024,-0.051 -0.048,-0.102 -0.071,-0.153c-0.923,-2.035 -1.88,-4.051 -2.887,-6.041c-0.504,-0.993 -1.035,-1.97 -1.615,-2.92c-0.585,-0.935 -1.183,-1.906 -2.121,-2.532c1.019,0.499 1.772,1.415 2.483,2.278c0.696,0.893 1.338,1.825 1.953,2.768c1.232,1.892 2.35,3.844 3.467,5.794c2.185,3.925 4.284,7.886 6.378,11.837c2.128,3.928 4.197,7.879 6.491,11.666c1.14,1.897 2.305,3.766 3.578,5.526c1.27,1.73 2.65,3.473 4.196,4.597l0.568,0.395c0.189,0.086 0.374,0.174 0.558,0.268c0.411,0.162 0.881,0.311 1.374,0.405c0.974,0.221 2.034,0.324 3.098,0.382c2.139,0.114 4.338,0.018 6.537,-0.11c4.414,-0.249 8.845,-0.813 13.299,-1.259c4.45,-0.488 8.922,-0.939 13.419,-1.195c2.249,-0.104 4.505,-0.179 6.762,-0.098c2.253,0.077 4.522,0.288 6.698,0.853c-2.231,-0.258 -4.463,-0.187 -6.682,-0.04c-2.221,0.164 -4.436,0.411 -6.644,0.723c-4.42,0.588 -8.825,1.347 -13.252,2.031c-4.425,0.718 -8.874,1.339 -13.396,1.762c-2.264,0.194 -4.549,0.293 -6.883,0.203c-1.17,-0.054 -2.35,-0.15 -3.564,-0.41c-0.604,-0.112 -1.214,-0.287 -1.842,-0.527l-0.96,-0.455l-0.818,-0.55c-1.036,-0.774 -1.885,-1.642 -2.657,-2.538c-0.776,-0.896 -1.481,-1.824 -2.145,-2.767c-1.322,-1.888 -2.537,-3.817 -3.643,-5.796c-2.208,-3.957 -4.24,-7.972 -6.134,-12.042c-1.231,-2.588 -2.416,-5.192 -3.6,-7.794c0.021,0.246 0.04,0.494 0.047,0.741c0.043,1.25 -0.062,2.521 -0.364,3.787c-0.084,0.316 -0.153,0.632 -0.272,0.944l-0.313,0.88c-0.193,0.5 -0.372,1.022 -0.533,1.551c-0.668,2.122 -1.207,4.339 -1.692,6.567m-9.12,67.526c-2.372,0.939 -4.772,1.859 -7.236,2.561c4.551,-2.316 8.944,-4.891 13.534,-7.172c2.301,-1.138 4.601,-2.245 7.103,-3.16c0.308,-0.116 0.637,-0.216 0.973,-0.307l0.499,-0.143l0.29,-0.099c0.36,-0.147 0.743,-0.439 1.103,-0.808c0.726,-0.739 1.345,-1.762 1.877,-2.817c1.085,-2.129 1.902,-4.485 2.563,-6.866c0.325,-1.195 0.614,-2.402 0.874,-3.603c0.235,-1.218 0.482,-2.392 0.435,-3.472l-0.248,-7.586c-0.094,-2.314 -0.169,-4.632 -0.231,-6.95c-1.283,-0.509 -2.519,-1.051 -3.73,-1.687c-1.44,-0.76 -2.854,-1.57 -4.181,-2.53c-1.314,-0.961 -2.592,-2.02 -3.613,-3.32c-1.016,-1.275 -1.799,-2.866 -1.715,-4.489c0.22,1.604 1.194,2.907 2.293,3.965c1.126,1.054 2.421,1.927 3.781,2.677c1.357,0.756 2.769,1.424 4.215,2.01c1.444,0.572 2.93,1.129 4.382,1.559l0.689,0.204l0.081,0.785c0.262,2.538 0.483,5.079 0.669,7.625c0.203,2.552 0.395,5.075 0.473,7.681l0.009,0.502c0,0.169 -0.004,0.407 -0.017,0.577c-0.024,0.371 -0.063,0.712 -0.107,1.05c-0.089,0.673 -0.202,1.325 -0.326,1.971c-0.248,1.296 -0.561,2.567 -0.931,3.824c-0.742,2.51 -1.611,4.994 -2.894,7.382c-0.669,1.182 -1.411,2.358 -2.512,3.403c-0.55,0.512 -1.205,1.008 -2.042,1.311c-0.204,0.064 -0.456,0.137 -0.625,0.178l-0.422,0.105c-0.283,0.063 -0.567,0.135 -0.859,0.231c-2.344,0.669 -4.71,1.636 -7.061,2.567l-7.093,2.841Zm62.258,97.414c0.095,1.676 0.092,3.36 -0.026,5.05c-0.129,1.691 -0.349,3.387 -0.859,5.101c-0.705,-1.644 -1.118,-3.303 -1.441,-4.968c-0.311,-1.665 -0.51,-3.336 -0.609,-5.014c-0.099,-1.678 -0.095,-3.361 0.022,-5.051c0.13,-1.691 0.351,-3.386 0.864,-5.099c0.707,1.641 1.122,3.301 1.445,4.966c0.312,1.665 0.509,3.336 0.604,5.015m-14.843,-8.319c0.857,-0.216 1.724,-0.407 2.626,-0.528c-0.671,0.612 -1.376,1.157 -2.091,1.676c-0.354,0.268 -0.718,0.511 -1.083,0.756c-0.144,0.094 -0.287,0.185 -0.427,0.28c0.411,3.018 0.55,6.04 0.46,9.068c-0.052,1.602 -0.172,3.209 -0.394,4.813c-0.134,0.804 -0.238,1.608 -0.43,2.409c-0.181,0.795 -0.361,1.62 -0.753,2.375c-0.255,-1.615 -0.598,-3.193 -0.804,-4.791c-0.216,-1.589 -0.354,-3.181 -0.441,-4.776c-0.165,-3.186 -0.133,-6.382 0.195,-9.581l0.083,-0.799l0.522,-0.178c0.412,-0.14 0.84,-0.251 1.26,-0.376c0.422,-0.124 0.844,-0.249 1.277,-0.348m-33.368,13.366l1.134,-1.397c-0.144,0.591 -0.326,1.172 -0.552,1.744c-0.244,0.58 -0.434,1.127 -0.957,1.72c-0.053,0.07 -0.175,0.157 -0.282,0.231c-0.072,0.077 -0.432,0.158 -0.504,0.159l-0.447,0.063l-0.891,0.096l-1.784,0.19c-1.19,0.085 -2.379,0.203 -3.569,0.262c-0.678,0.04 -1.356,0.057 -2.036,0.082c0.221,2.988 0.34,5.98 0.324,8.979c-0.028,1.745 -0.062,3.49 -0.187,5.239c-0.142,1.745 -0.238,3.508 -0.688,5.245c-0.303,-1.731 -0.674,-3.445 -0.932,-5.171c-0.286,-1.723 -0.498,-3.45 -0.713,-5.177c-0.392,-3.454 -0.637,-6.921 -0.758,-10.391l-0.056,-1.548l1.478,0.035c1.19,0.028 2.379,0.076 3.568,0.146c1.19,0.059 2.379,0.177 3.569,0.262l1.784,0.19l0.891,0.096l0.447,0.063c0.071,-0.013 -0.132,0.041 -0.079,0.044c0.017,-0.008 0.031,0.013 0.081,-0.024c0.361,-0.212 0.777,-0.712 1.159,-1.138m21.323,0.691c0.145,2.277 0.198,4.548 0.169,6.815c-0.03,2.269 -0.128,4.53 -0.303,6.794c-0.187,2.272 -0.42,4.516 -0.755,6.845c-0.892,-2.198 -1.278,-4.515 -1.557,-6.798c-0.257,-2.293 -0.359,-4.588 -0.326,-6.876c0.034,-2.29 0.183,-4.576 0.47,-6.852c0.304,-2.275 0.694,-4.547 1.413,-6.795c0.505,2.304 0.724,4.586 0.889,6.867m-44.157,-81.559c-0.336,-2.071 -0.335,-4.161 -0.108,-6.208c0.248,-2.044 0.695,-4.071 1.599,-5.963c0.602,4.097 0.803,7.952 1.416,11.72c0.317,1.867 0.635,3.729 1.212,5.513c0.572,1.791 1.311,3.507 2.394,5.31c-1.904,-0.877 -3.435,-2.53 -4.509,-4.375c-1.082,-1.862 -1.66,-3.935 -2.004,-5.997m26.679,0.593c0.135,1.543 0.026,3.188 -0.655,4.69c-0.665,1.494 -1.88,2.746 -3.338,3.25c0.635,-1.434 0.974,-2.65 1.118,-3.891c0.152,-1.232 0.051,-2.488 -0.051,-3.764c-0.115,-1.28 -0.317,-2.595 -0.532,-3.951c-0.206,-1.364 -0.42,-2.753 -0.535,-4.289c1.201,0.986 2.052,2.243 2.728,3.583c0.665,1.345 1.119,2.818 1.265,4.372m14.003,4.682c0.033,0.548 0.117,1.067 0.103,1.626l-0.018,0.82c-0.046,0.285 -0.099,0.561 -0.165,0.812l-0.275,-0.744l-0.337,-0.712c-0.214,-0.465 -0.465,-0.937 -0.694,-1.399l-1.358,-2.804c-0.873,-1.881 -1.683,-3.788 -2.423,-5.727c-0.736,-1.938 -1.402,-3.908 -1.977,-5.918c-0.555,-2.017 -1.058,-4.059 -1.296,-6.218c1.368,1.689 2.439,3.509 3.435,5.362c0.978,1.857 1.839,3.77 2.585,5.728c0.751,1.956 1.384,3.961 1.863,6.026c0.247,1.027 0.413,2.087 0.557,3.148m15.297,1.075c0.209,1.718 0.471,3.494 0.152,5.219c0.06,-0.868 -0.161,-1.716 -0.319,-2.553c-0.191,-0.84 -0.4,-1.673 -0.631,-2.502c-0.469,-1.659 -0.954,-3.312 -1.483,-4.954c-1.02,-3.293 -2.114,-6.568 -3.174,-9.852l-3.221,-9.846l-3.15,-9.878c-1.001,-3.309 -2.033,-6.611 -2.995,-9.943c-0.471,-1.671 -0.934,-3.342 -1.363,-5.051c-0.191,-0.871 -0.458,-1.686 -0.503,-2.797c-0.027,-1.031 0.135,-1.989 0.369,-2.897c1.001,-3.609 2.937,-6.624 5.08,-9.416c1.105,-1.372 2.277,-2.691 3.584,-3.871c0.659,-0.585 1.34,-1.144 2.077,-1.633c0.738,-0.465 1.543,-0.925 2.423,-0.984c-0.849,0.208 -1.524,0.77 -2.155,1.334c-0.632,0.57 -1.215,1.197 -1.763,1.846c-1.094,1.31 -2.097,2.692 -2.994,4.138c-0.909,1.434 -1.738,2.919 -2.429,4.446c-0.687,1.526 -1.291,3.088 -1.596,4.649c-0.145,0.775 -0.212,1.548 -0.145,2.246c0.051,0.623 0.31,1.473 0.535,2.273c0.478,1.631 1.005,3.274 1.536,4.911l3.146,9.873l3.004,9.937c0.938,3.332 1.919,6.655 2.761,10.019c0.878,3.354 1.676,6.734 2.372,10.139c0.327,1.708 0.646,3.421 0.882,5.147m48.056,-102.811c0,0 -0.473,0.423 -1.366,1.09c0.403,-1.001 0.793,-2.009 1.169,-3.023c0.322,-0.894 0.631,-1.792 0.933,-2.693c-0.45,2.882 -0.736,4.626 -0.736,4.626m17.163,79.289l-0.268,0.274c-3.691,4.331 -4.342,27.884 -4.345,75.777c-0.001,12.183 -0.002,22.708 -0.29,26.751c-0.441,6.174 -24.518,27.011 -61.247,45.613c-1.601,0.813 -3.189,2.962 -5.857,6.692c-1.203,1.68 -3.195,4.464 -3.969,5.079c-1.99,0.921 -3.992,1.767 -6.004,2.559c-0.084,-0.535 -0.176,-1.064 -0.268,-1.591c-0.385,-2.126 -0.826,-4.208 -1.285,-6.284c-0.923,-4.148 -1.926,-8.258 -2.98,-12.353c0.083,4.224 0.111,8.45 0.056,12.655c-0.03,2.101 -0.082,4.198 -0.193,6.265c-0.058,1.03 -0.129,2.056 -0.241,3.029c-0.005,0.031 -0.01,0.061 -0.014,0.092c-13.963,4.752 -28.41,6.486 -43.118,5.171l0.094,-70.198c1.143,-0.515 2.169,-1.151 3.142,-1.838c1.044,-0.745 2.015,-1.569 2.934,-2.428l0.226,0.131c0.616,0.341 1.24,0.67 1.89,0.966c1.298,0.591 2.645,1.108 4.156,1.382c-0.831,-1.291 -1.828,-2.338 -2.876,-3.307c-0.525,-0.484 -1.073,-0.935 -1.634,-1.37c-0.28,-0.216 -0.57,-0.42 -0.862,-0.633l-0.239,-0.16c0.023,0.015 -0.111,-0.071 -0.196,-0.107c-0.094,-0.044 -0.196,-0.082 -0.298,-0.11c-0.21,-0.055 -0.395,-0.082 -0.634,-0.024c-0.232,0.049 -0.474,0.158 -0.662,0.299c-0.048,0.034 -0.091,0.07 -0.132,0.108l-0.026,0.022l-0.025,0.023l-0.41,0.376c-1.027,0.991 -1.961,2.043 -2.82,3.186c-0.553,0.746 -1.073,1.527 -1.533,2.368l0.01,-6.864c1.076,-0.398 2.893,-1.864 6.411,-5.811c0.225,0.277 0.481,0.597 0.71,0.884c2.091,2.622 3.942,4.945 5.665,4.945c0.327,0 0.651,-0.085 0.971,-0.267c1.063,-0.607 3.267,-3.394 4.893,-5.574c1.824,2.976 5.14,7.605 6.691,7.605c0.607,0 1.25,-0.018 6.697,-5.506c1.824,4.185 6.108,10.651 6.414,10.956l0.43,0.432l0.609,0c3.039,0 8.525,-11.002 8.562,-11.114c0.034,-0.102 0.083,-0.253 0.183,-1.571c1.312,0.658 2.819,1.291 3.752,1.291c1.748,0 3.446,-2.201 4.565,-4.048l0.232,-0.385l-0.035,-0.745c1.209,0.318 2.688,0.61 4.063,0.61c1.057,0 2.049,-0.172 2.798,-0.641c0.773,-0.484 1.316,-1.885 1.629,-4.169c0.237,0.006 1.072,0.034 1.822,0.066c2.165,0.094 3.701,0.143 4.812,0.143c2.235,-0.001 2.745,-0.199 3.179,-0.635c0.434,-0.432 0.634,-2.277 0.689,-4.641c1.009,0.476 2.295,0.94 3.477,0.94c0.761,0 1.478,-0.193 2.048,-0.699c1.279,-1.136 2.614,-5.321 3.128,-7.067l0.082,-0.277l-1.201,-11.887c3.03,-2.496 5.467,-6.216 5.467,-11.038c0,-0.815 -0.082,-1.611 -0.222,-2.398c2.171,-5.404 3.06,-12.364 2.794,-22.964c-0.162,-6.509 1.982,-12.214 5.314,-16.729c0.266,15.08 0.452,30.17 0.476,45.251c-0.01,9.081 -0.018,18.173 -0.392,27.228c-0.121,2.25 -0.209,4.543 -0.557,6.711c-0.052,0.254 -0.079,0.571 -0.162,0.749l-0.099,0.323c-0.061,0.077 -0.119,0.157 -0.174,0.244c-0.237,0.26 -0.608,0.29 -1.082,0.137c-0.932,-0.317 -1.815,-1.088 -2.629,-1.823c-1.626,-1.538 -3.07,-3.298 -4.46,-5.089c-1.38,-1.797 -2.7,-3.649 -3.954,-5.545c1.151,1.961 2.369,3.883 3.658,5.763c1.298,1.871 2.649,3.717 4.239,5.394c0.408,0.412 0.817,0.824 1.28,1.194c0.457,0.376 0.946,0.733 1.559,0.973c0.298,0.12 0.646,0.209 1.033,0.18c0.187,0.015 0.385,-0.083 0.574,-0.139c0.18,-0.079 0.334,-0.21 0.493,-0.327c0.119,-0.138 0.237,-0.282 0.349,-0.428l0.199,-0.479c0.154,-0.34 0.174,-0.6 0.255,-0.898c0.495,-2.301 0.697,-4.557 0.943,-6.832c0.869,-9.083 1.367,-18.171 1.867,-27.259c0.89,-17.009 1.576,-34.013 2.171,-51.034c3.258,-2.515 6.9,-4.208 10.413,-4.899c0.166,-0.032 0.336,-0.056 0.504,-0.083c-0.275,9.889 -0.498,19.752 -0.671,29.63c-0.18,10.684 -0.305,21.368 -0.313,32.06c0.016,10.693 0.049,21.382 0.663,32.116c0.175,2.672 0.381,5.406 0.814,8.066c0.371,2.497 0.459,5.147 -0.626,7.274c-0.545,1.046 -1.435,1.88 -2.559,2.368c-1.121,0.491 -2.416,0.669 -3.71,0.654c-2.602,-0.046 -5.226,-0.71 -7.697,-1.685c2.374,1.207 4.93,2.136 7.653,2.447c1.358,0.143 2.78,0.102 4.161,-0.347c1.378,-0.439 2.652,-1.397 3.46,-2.653c0.817,-1.253 1.234,-2.683 1.446,-4.086c0.206,-1.41 0.229,-2.818 0.147,-4.205c-0.179,-2.635 -0.139,-5.232 -0.069,-7.886c0.356,-10.579 1.292,-21.196 2.243,-31.791c0.977,-10.597 2.069,-21.189 3.219,-31.777c1.079,-9.906 2.21,-19.819 3.391,-29.697c4.308,0.78 8.416,1.994 11.27,2.938c-1.872,2.042 -3.869,4.05 -6.037,6.005m-129.914,88.811c0.066,0.033 0.134,0.061 0.199,0.111l-0.2,0.261l0.001,-0.372Zm0.026,-19.25c1.147,0.768 2.749,1.735 4.363,2.379c0.017,5.548 0.217,8.693 0.478,10.506c-1.597,1.842 -3.652,4.284 -4.866,5.509l0.025,-18.394Zm0.035,-27.11c2.366,-4.413 6.928,-10.516 8.48,-10.165c2.462,0.546 7.639,7.902 9.247,11.86c1.045,2.572 1.65,14.411 1.83,22.407c-4.156,1.377 -10.425,3.233 -12.292,3.136c-1.885,-0.076 -5.368,-2.256 -7.124,-3.613l-0.172,0.223l0.031,-23.848Zm140.479,-79.678c0.035,0.007 -0.069,0.016 -0.126,0.025c0.04,-0.017 0.084,-0.028 0.126,-0.025m-140.362,-7.274l6.346,7.95l1.531,25.134c4.602,0 20.774,-5.513 23.347,-11.025c2.572,-5.514 3.307,-22.788 0,-23.156c-3.309,-0.368 -10.111,-6.617 -12.59,-7.35c0,0 -1.111,-7.432 1.094,-13.68c2.204,-6.248 -2.471,-23.81 -3.447,-27.853c-0.833,-3.451 -12.729,-6.72 -16.202,-7.605l0.014,-10.979c1.301,0.997 2.658,1.827 3.948,2.695c1.614,1.055 3.224,2.12 4.423,3.292l0.986,1.072c0.428,0.411 0.868,0.785 1.331,1.088c0.921,0.621 1.877,1.1 2.857,1.469c1.96,0.725 3.985,1.152 6.069,1.125c-1.726,-1.144 -3.429,-2.138 -5.025,-3.188c-0.792,-0.526 -1.551,-1.063 -2.221,-1.631c-0.341,-0.28 -0.646,-0.572 -0.91,-0.869l-0.415,-0.478c-0.196,-0.223 -0.387,-0.462 -0.592,-0.665c-1.662,-1.601 -3.552,-2.532 -5.467,-3.274c-1.619,-0.613 -3.281,-1.008 -4.984,-1.271l0.044,-32.469c1.451,-0.074 2.879,-0.05 4.221,0.209c0.821,0.148 1.608,0.386 2.261,0.761c0.324,0.189 0.633,0.379 0.885,0.62c0.257,0.241 0.45,0.48 0.685,0.833c0.892,1.322 1.673,2.902 2.41,4.469c0.746,1.571 1.452,3.183 2.167,4.798l1.082,2.433c0.308,0.675 0.596,1.325 0.956,2.034c-0.225,0.368 -0.436,0.739 -0.63,1.115c-0.542,1.071 -0.974,2.177 -1.309,3.31c-0.336,1.131 -0.574,2.293 -0.702,3.488c-0.011,0.109 -0.016,0.219 -0.024,0.328c-1.079,-2.014 -2.224,-3.995 -3.474,-5.921l-0.314,-0.483l-0.371,-0.067l-1.604,-0.288c-0.539,-0.101 -1.071,-0.231 -1.608,-0.346c-0.533,-0.121 -1.061,-0.267 -1.577,-0.435c-0.499,-0.194 -1.034,-0.353 -1.371,-0.823c0.064,0.605 0.567,1.077 0.998,1.461c0.448,0.405 0.95,0.706 1.448,1.02c0.498,0.316 1.024,0.557 1.545,0.815c0.351,0.17 0.705,0.326 1.066,0.474c1.411,3.486 3.07,6.843 4.903,10.11c0.956,1.68 1.956,3.337 3.042,4.949c1.095,1.609 2.225,3.198 3.537,4.695c-0.464,-1.935 -1.111,-3.776 -1.791,-5.599c-0.691,-1.817 -1.466,-3.59 -2.288,-5.341c-0.327,-0.687 -0.669,-1.369 -1.011,-2.051c0.425,-0.598 0.786,-1.216 1.112,-1.845c0.541,-1.071 0.971,-2.176 1.303,-3.31c0.32,-1.09 0.548,-2.208 0.679,-3.354c0.365,0.289 0.732,0.546 1.1,0.785c0.796,0.519 1.621,0.945 2.447,1.357c1.652,0.819 3.378,1.456 5.143,1.942c0.338,0.084 0.679,0.163 1.021,0.236c0.615,5.288 1.853,10.344 3.679,14.607c7.352,17.152 23.666,35.284 45.893,39.204c10.72,1.891 19.682,-0.21 26.097,-2.89c-2.756,-4.788 -5.665,-9.415 -8.725,-13.944c-1.625,-2.36 -3.228,-4.73 -4.933,-7.029c-1.666,-2.328 -3.371,-4.628 -5.129,-6.889c-1.713,-2.292 -3.503,-4.53 -5.293,-6.766c-0.901,-1.113 -1.786,-2.243 -2.703,-3.345c-0.929,-1.089 -1.826,-2.21 -2.741,-3.317c-3.683,-4.404 -7.464,-8.732 -11.274,-13.102c4.641,3.481 8.929,7.412 12.972,11.572c2.033,2.068 3.962,4.236 5.88,6.417c1.889,2.202 3.711,4.465 5.495,6.757c1.742,2.321 3.455,4.669 5.077,7.081c0.82,1.201 1.582,2.438 2.361,3.665c0.797,1.214 1.513,2.481 2.235,3.743c2.753,4.811 5.186,9.834 6.928,15.094c0.296,-0.126 0.589,-0.251 0.875,-0.378c-1.198,-5.48 -2.841,-10.786 -4.944,-15.894l-1.84,-4.186c-0.68,-1.365 -1.319,-2.749 -2.028,-4.095c-0.745,-1.33 -1.425,-2.694 -2.18,-4.014c-0.791,-1.302 -1.558,-2.62 -2.365,-3.91l-2.49,-3.835l-2.652,-3.73l-2.774,-3.646c-0.983,-1.167 -1.945,-2.357 -2.905,-3.551c-3.965,-4.67 -8.252,-9.077 -12.787,-13.325c5.281,3.285 10.108,7.312 14.477,11.787c1.072,1.136 2.14,2.281 3.188,3.443l3.009,3.609c0.96,1.24 1.866,2.519 2.802,3.777c0.89,1.29 1.746,2.606 2.62,3.909c0.819,1.337 1.586,2.708 2.38,4.062c0.751,1.378 1.459,2.781 2.168,4.18c0.668,1.421 1.264,2.877 1.899,4.311c0.601,1.448 1.1,2.941 1.629,4.417c1.783,5.35 2.929,10.936 3.136,16.536c0.358,-0.163 0.706,-0.327 1.044,-0.491c-0.079,-5.735 -0.616,-11.397 -1.765,-16.923c-0.704,-3.225 -1.521,-6.422 -2.624,-9.524c-1.061,-3.114 -2.324,-6.156 -3.799,-9.095c-0.176,-0.37 -0.336,-0.749 -0.525,-1.115l-0.595,-1.08l-1.19,-2.162c-0.765,-1.457 -1.758,-2.778 -2.599,-4.195c-0.415,-0.713 -0.916,-1.368 -1.396,-2.038l-1.446,-2.007c-0.461,-0.687 -1.023,-1.293 -1.534,-1.942l-1.553,-1.934c-4.275,-5.051 -9.156,-9.611 -14.469,-13.759c5.978,3.127 11.437,7.316 16.163,12.227c1.141,1.262 2.355,2.475 3.411,3.816l1.582,2.017c0.526,0.673 1.072,1.334 1.534,2.054c1.958,2.806 3.708,5.758 5.251,8.815c1.493,3.084 2.789,6.263 3.811,9.532c0.988,3.278 1.785,6.613 2.239,9.998c0.806,5.671 0.824,11.437 0.039,17.054c0.367,-0.181 0.721,-0.364 1.064,-0.548c0.708,-5.812 1.061,-11.615 0.788,-17.38l-0.137,-2.698c-0.06,-0.897 -0.203,-1.785 -0.3,-2.677l-0.322,-2.672c-0.095,-0.893 -0.34,-1.759 -0.503,-2.64l-0.518,-2.633c-0.152,-0.884 -0.466,-1.727 -0.689,-2.591l-0.731,-2.579c-0.246,-0.859 -0.619,-1.674 -0.918,-2.515c-2.428,-6.711 -6.073,-12.958 -10.648,-18.484c-4.591,-5.528 -10.135,-10.282 -16.257,-14.331c6.712,2.981 12.874,7.365 17.968,12.815c1.244,1.386 2.563,2.723 3.618,4.272l1.673,2.253c0.56,0.751 1.001,1.58 1.505,2.367l1.455,2.406l1.236,2.524c0.4,0.848 0.834,1.68 1.208,2.538l1.001,2.627c0.309,0.884 0.68,1.749 0.93,2.65l0.734,2.711c0.225,0.908 0.535,1.795 0.685,2.72l0.489,2.761c0.136,0.924 0.352,1.835 0.417,2.768l0.231,2.788c0.063,0.93 0.184,1.856 0.198,2.786l-0.03,2.792c-0.067,5.756 -0.871,11.463 -2.285,16.986c0.368,-0.206 0.726,-0.409 1.062,-0.609c0.431,-1.888 0.836,-3.779 1.187,-5.677c0.738,-3.895 1.254,-7.818 1.574,-11.739c0.278,-3.924 0.394,-7.851 0.113,-11.752c-0.24,-3.897 -0.794,-7.769 -1.76,-11.533c-1.844,-7.546 -5.3,-14.671 -10.196,-20.741c-4.916,-6.066 -11.198,-11.019 -18.156,-14.947c7.476,2.822 14.419,7.4 19.895,13.461c2.763,3.007 5.055,6.439 6.975,10.052c1.894,3.635 3.316,7.504 4.333,11.463c0.968,3.975 1.525,8.038 1.69,12.102c0.126,4.066 -0.051,8.131 -0.613,12.135c-0.527,4.009 -1.368,7.96 -2.449,11.829c-0.46,1.569 -0.959,3.123 -1.486,4.666c0.345,-0.218 0.665,-0.428 0.966,-0.63c0.46,-1.509 0.907,-3.02 1.315,-4.542c1.137,-4.161 2.109,-8.353 2.877,-12.569c0.71,-4.227 1.259,-8.472 1.408,-12.726c0.185,-4.248 0.044,-8.506 -0.576,-12.684c-0.567,-4.185 -1.626,-8.291 -3.181,-12.197c-1.557,-3.91 -3.697,-7.571 -6.247,-10.935c-5.153,-6.723 -12.264,-11.851 -20.048,-15.66c8.236,2.675 16.05,7.415 21.82,14.218c2.906,3.37 5.24,7.23 7.037,11.311c1.746,4.108 2.875,8.457 3.528,12.847c0.118,0.853 0.201,1.706 0.282,2.561c0.913,-8.367 1.438,-15.74 0.976,-19.13c-0.174,-1.273 -0.537,-2.622 -1.054,-4.012c0.727,-0.371 1.457,-0.738 2.192,-1.09c1.646,-0.787 3.317,-1.527 5.018,-2.186c1.285,-0.497 2.587,-0.948 3.913,-1.312c3.625,9.663 6.659,21.457 6.659,38.617c0,1.078 0.02,2.11 0.053,3.118l-0.004,-0.005c-0.323,5.285 -0.74,15.993 -1.183,21.277c-0.222,2.643 -0.47,5.279 -0.747,7.909c-0.266,2.286 -0.536,4.63 -0.96,6.79c-0.883,0.249 -1.772,0.483 -2.667,0.699c-1.549,0.382 -3.117,0.715 -4.667,1.157c-0.77,0.236 -1.547,0.464 -2.271,0.836c-0.71,0.358 -1.434,0.838 -1.765,1.589c0.388,-0.722 1.125,-1.123 1.841,-1.422c0.727,-0.308 1.51,-0.473 2.283,-0.648c1.557,-0.316 3.143,-0.529 4.725,-0.793c0.774,-0.124 1.548,-0.26 2.323,-0.408c-0.149,0.825 -0.954,1.875 -1.657,2.862c-0.765,1.039 -1.588,2.053 -2.443,3.033c-0.856,0.979 -1.753,1.924 -2.698,2.795c-0.942,0.855 -1.958,1.69 -3.005,2.15c-0.252,0.095 -0.517,0.188 -0.724,0.192c-0.224,0.003 -0.3,-0.002 -0.641,-0.169c-0.574,-0.278 -1.155,-0.598 -1.736,-0.917l-3.502,-1.934c-1.18,-0.629 -2.374,-1.242 -3.617,-1.755c-0.623,-0.252 -1.26,-0.484 -1.925,-0.615c-0.33,-0.065 -0.675,-0.107 -1.015,-0.047c-0.338,0.046 -0.665,0.279 -0.74,0.616c0.109,-0.329 0.434,-0.509 0.753,-0.524c0.322,-0.028 0.647,0.042 0.96,0.135c0.628,0.184 1.226,0.466 1.812,0.769c1.17,0.613 2.288,1.325 3.395,2.051l3.301,2.244c0.557,0.376 1.11,0.75 1.705,1.109c0.233,0.166 0.79,0.42 1.238,0.415c0.462,0.025 0.846,-0.081 1.225,-0.184c1.45,-0.49 2.583,-1.303 3.694,-2.125c1.094,-0.838 2.12,-1.74 3.111,-2.677c0.985,-0.942 1.935,-1.914 2.848,-2.94c0.457,-0.514 0.905,-1.038 1.341,-1.599c0.215,-0.306 0.442,-0.523 0.644,-0.955c0.186,-0.388 0.435,-0.881 0.511,-1.186c0.162,-0.506 0.301,-1.001 0.441,-1.498c1.283,-0.336 2.559,-0.714 3.812,-1.192c1.543,-0.637 3.141,-1.551 4.235,-2.948c1.118,-1.356 1.883,-2.959 2.37,-4.604c0.132,-0.444 0.237,-0.89 0.331,-1.34l-0.074,20.249c-1.027,4.196 -2.137,8.408 -3.402,12.531c-0.656,2.089 -1.334,4.213 -2.206,6.11c-0.21,0.465 -0.471,0.933 -0.678,1.197c-0.032,0.049 -0.045,0.061 -0.052,0.068l-0.789,0.11l-3.309,0.463c-4.412,0.625 -8.82,1.29 -13.216,2.031c-2.196,0.388 -4.391,0.767 -6.575,1.23c-1.092,0.228 -2.182,0.464 -3.261,0.75c-0.54,0.144 -1.08,0.274 -1.607,0.464c-0.265,0.093 -0.535,0.164 -0.792,0.273l-0.752,0.364l0.774,-0.309c0.26,-0.091 0.536,-0.144 0.802,-0.218c0.533,-0.151 1.079,-0.244 1.625,-0.351c1.089,-0.211 2.189,-0.369 3.289,-0.522c2.2,-0.31 4.411,-0.538 6.62,-0.772c4.422,-0.437 8.853,-0.796 13.289,-1.117l3.328,-0.234l0.836,-0.059c0.094,-0.012 0.089,0.003 0.262,-0.03c0.202,-0.043 0.415,-0.12 0.585,-0.212c0.198,-0.139 0.452,-0.331 0.55,-0.46c0.523,-0.577 0.812,-1.089 1.107,-1.611c1.13,-2.079 1.941,-4.161 2.768,-6.263c1.612,-4.205 3.04,-8.429 4.402,-12.717l0.044,-0.139l0.02,-0.275l1.557,-21.53c2.471,-0.76 4.712,-2.45 6.271,-4.586c0.582,4.878 0.959,10.621 0.801,16.905c-5.631,37.766 -27.429,41.391 -48.917,42.707c-3.644,0.224 -7.411,0.453 -11.017,0.879c-0.308,0.037 -0.596,0.09 -0.897,0.133c-0.314,0.013 -0.689,0.004 -1.045,-0.02c-0.763,-0.082 -1.565,-0.204 -2.378,-0.398c-1.626,-0.374 -3.272,-0.919 -4.858,-1.582c-3.149,-1.353 -6.26,-3.102 -8.128,-5.741c-0.972,-1.332 -1.647,-2.896 -2.188,-4.611c-0.285,-0.863 -0.521,-1.757 -0.949,-2.726c-0.092,-0.235 -0.267,-0.496 -0.4,-0.734c-0.205,-0.242 -0.354,-0.506 -0.652,-0.701c-0.139,-0.098 -0.27,-0.209 -0.421,-0.28c-0.158,-0.063 -0.317,-0.121 -0.476,-0.173c-0.311,-0.096 -0.63,-0.071 -0.908,-0.096c-0.645,0.042 -1.481,-0.284 -2.216,-0.735c-0.748,-0.451 -1.47,-0.996 -2.159,-1.585c-1.37,-1.19 -2.65,-2.515 -3.833,-3.926c0.986,1.558 2.082,3.049 3.319,4.452c0.624,0.696 1.291,1.362 2.048,1.967c0.759,0.59 1.621,1.175 2.83,1.296c0.348,0.077 0.593,0.121 0.738,0.334c0.094,0.056 0.15,0.238 0.233,0.345c0.056,0.178 0.138,0.306 0.187,0.512c0.222,0.754 0.351,1.668 0.519,2.585c0.323,1.85 0.847,3.808 1.82,5.61c0.938,1.815 2.353,3.423 3.837,4.716c1.499,1.315 3.117,2.433 4.806,3.428c0.538,0.313 1.086,0.61 1.64,0.899c-11.394,6.488 -12.291,21.437 -12.924,31.993c-0.052,0.882 -0.107,1.731 -0.161,2.564c-0.405,-2.011 -0.915,-3.993 -1.525,-5.938c-0.753,-2.412 -1.625,-4.782 -2.649,-7.097c-1.056,-2.296 -2.132,-4.613 -3.712,-6.684c0.443,2.524 0.924,4.992 1.532,7.43c0.608,2.433 1.281,4.84 2.022,7.222c0.743,2.383 1.532,4.744 2.37,7.09l1.271,3.516c0.199,0.582 0.444,1.177 0.611,1.764l0.031,0.1c0.204,1.972 0.587,3.783 1.064,5.468c-0.767,0.678 -1.896,2.092 -3.513,5.062c-1.06,-1.102 -1.678,-1.169 -1.959,-1.197c-0.624,-0.06 -1.871,-0.168 -5.355,4.921c-0.999,-1.077 -2.233,-1.96 -3.576,-1.864c-1.753,0.104 -3.51,2.002 -4.778,3.764c-0.939,-1.678 -2.282,-3.624 -3.727,-4.269c-1.79,-0.803 -3.444,0.625 -4.696,2.344c-1.037,-1.92 -4.271,-7.335 -7.754,-7.412l-0.052,0c-2.958,0 -5.418,5.62 -6.762,9.488c-1.287,-1.861 -3.217,-3.878 -5.771,-4.435c-3.925,-0.858 -7.795,3.332 -10.109,5.833c-0.058,0.063 -0.12,0.13 -0.18,0.195c-2.327,-4.217 -6.65,-10.235 -10.043,-10.989c-3.638,-0.798 -7.118,3.843 -9.107,7.438l0.109,-81.354Zm6.292,-1.246c-2.488,-5.318 -4.977,-13.633 -6.266,-18.221l0.043,-31.77c13.702,-1.997 15.352,14.953 15.352,19.224c0,3.809 -7.271,25.333 -9.129,30.767m82.238,-37.779c-2.023,-1.883 -3.946,-3.864 -5.893,-5.819c-1.922,-1.981 -3.804,-3.994 -5.687,-6.01c-1.843,-2.051 -3.692,-4.095 -5.501,-6.174c-1.785,-2.102 -3.596,-4.177 -5.325,-6.326c-3.495,-4.266 -6.886,-8.618 -10.037,-13.172c4.07,3.756 7.934,7.684 11.745,11.654c1.929,1.966 3.781,3.996 5.68,5.986l5.605,6.046l5.548,6.09l5.51,6.127c3.673,4.088 7.33,8.182 10.964,12.36c-4.467,-3.278 -8.611,-6.956 -12.609,-10.762m-5.994,7.818c-2.709,-0.763 -5.337,-1.808 -7.889,-2.999c-1.307,-0.541 -2.499,-1.302 -3.742,-1.969c-1.253,-0.651 -2.409,-1.462 -3.597,-2.22c-1.195,-0.752 -2.282,-1.65 -3.405,-2.5c-1.138,-0.831 -2.181,-1.779 -3.233,-2.716c-1.069,-0.914 -2.022,-1.953 -3.014,-2.947c-1.017,-0.971 -1.881,-2.086 -2.794,-3.15c-3.568,-4.319 -6.535,-9.151 -8.491,-14.348c3.041,4.638 6.427,8.926 10.197,12.827c1.903,1.931 3.839,3.821 5.93,5.528c1.057,0.845 2.045,1.766 3.157,2.533c1.09,0.794 2.142,1.64 3.296,2.336c1.127,0.736 2.214,1.54 3.401,2.176c1.173,0.661 2.313,1.388 3.533,1.958c2.372,1.281 4.861,2.327 7.376,3.313c4.119,1.558 8.406,2.694 12.823,3.47c0.039,-0.002 0.078,-0.004 0.117,-0.006c-3.918,-1.267 -7.679,-3.067 -11.241,-5.152c-2.388,-1.369 -4.649,-2.939 -6.885,-4.539c-1.091,-0.832 -2.187,-1.662 -3.25,-2.532c-1.046,-0.885 -2.116,-1.748 -3.147,-2.656l-3.011,-2.806c-0.968,-0.971 -1.957,-1.922 -2.907,-2.91l-2.771,-3.034c-0.902,-1.029 -1.775,-2.086 -2.648,-3.139c-3.44,-4.253 -6.562,-8.773 -9.111,-13.602c3.554,4.142 7.12,8.189 10.829,12.093c0.948,0.959 1.887,1.92 2.809,2.896l2.864,2.834l2.912,2.78l2.984,2.692c0.997,0.895 2.021,1.759 3.029,2.64c1.016,0.871 2.087,1.674 3.113,2.535c1.03,0.858 2.116,1.637 3.174,2.461c1.064,0.813 2.176,1.552 3.251,2.354c3.705,2.578 7.57,4.923 11.638,7.001c0.095,-0.005 0.189,-0.008 0.284,-0.013c-0.069,0.019 -0.138,0.034 -0.207,0.052c0.329,0.169 0.661,0.336 0.992,0.5c0.074,0.01 0.148,0.022 0.222,0.032c-0.047,0.005 -0.093,0.006 -0.139,0.009c0.384,0.189 0.758,0.391 1.146,0.577c-0.699,-0.155 -1.393,-0.33 -2.084,-0.522c-0.966,0.058 -1.934,0.09 -2.904,0.08c-4.645,1.018 -9.446,1.458 -14.255,1.216c-2.931,-0.096 -5.832,-0.6 -8.712,-1.202c-1.418,-0.392 -2.851,-0.748 -4.246,-1.218c-1.375,-0.535 -2.777,-1.003 -4.129,-1.601c-1.312,-0.683 -2.664,-1.287 -3.937,-2.036l-1.883,-1.172c-0.625,-0.395 -1.271,-0.757 -1.835,-1.239c-2.355,-1.783 -4.624,-3.699 -6.531,-5.952c-3.896,-4.407 -6.789,-9.707 -8.101,-15.329c2.468,5.214 5.765,9.856 9.758,13.754c1.991,1.949 4.167,3.7 6.467,5.254c1.13,0.802 2.366,1.451 3.541,2.186c1.205,0.687 2.49,1.229 3.727,1.853c1.263,0.576 2.578,1.04 3.863,1.567c1.308,0.474 2.666,0.801 3.992,1.234c1.335,0.403 2.718,0.628 4.078,0.953c0.679,0.175 1.374,0.266 2.069,0.354l2.083,0.308c2.532,0.319 5.086,0.481 7.657,0.539c-2.094,-0.324 -4.174,-0.79 -6.213,-1.386m-82.137,-265.361c81.068,7.026 142.133,57.356 156.486,126.675l-0.05,0.009c2.403,14.355 0.986,38.533 -2.406,41.063c-1.289,0.962 -2.451,2.201 -3.504,3.751c1.708,-36.167 -8.428,-63.734 -17.298,-80.151c-0.008,-0.019 -0.016,-0.042 -0.023,-0.06c-3.805,-8.328 -10.973,-20.214 -19.882,-31.35l-1.143,0.914c8.682,10.852 14.514,27.063 18.265,35.278c0.092,0.2 0.171,0.373 0.257,0.559c2.447,20.763 -12.583,33.187 -14.117,55.808c-1.185,17.481 5.867,27.447 11.632,42.473c-1.354,0.19 -2.693,0.463 -4.02,0.781c-1.82,0.441 -3.617,0.965 -5.398,1.542c-0.794,0.26 -1.58,0.529 -2.365,0.807c-4.413,-9.31 -14.586,-19.609 -20.922,-21.59c-7.84,-2.451 -23.277,-2.451 -28.545,-2.451c-5.27,0 -14.581,-1.96 -28.792,4.411c-10.226,4.584 -14.135,21.822 -12.636,37.467c-0.134,-0.064 -0.269,-0.123 -0.403,-0.189c-1.57,-0.764 -3.074,-1.657 -4.531,-2.583c-0.723,-0.468 -1.417,-0.979 -2.077,-1.485c-0.329,-0.256 -0.641,-0.521 -0.917,-0.784c-0.269,-0.254 -0.522,-0.549 -0.538,-0.636c-0.306,-0.693 -0.649,-1.56 -0.982,-2.37c-0.329,-0.827 -0.685,-1.649 -1.038,-2.474c-0.715,-1.651 -1.484,-3.285 -2.344,-4.893c-0.894,-1.598 -1.781,-3.199 -3.114,-4.664c-0.305,-0.356 -0.731,-0.767 -1.178,-1.072c-0.448,-0.311 -0.93,-0.55 -1.421,-0.717c-0.985,-0.337 -1.975,-0.432 -2.926,-0.428c-1.522,0.065 -2.973,0.374 -4.331,0.896l0.027,-20.345c0.877,-3.536 3.56,-9.523 5.541,-11.057c2.261,-1.815 5.461,-2.884 8.78,-3.647c3.342,-0.771 6.863,-1.267 10.427,-2.007c1.783,-0.374 3.582,-0.81 5.369,-1.427c0.892,-0.302 1.778,-0.673 2.649,-1.092c0.434,-0.217 0.859,-0.458 1.286,-0.702c0.422,-0.299 0.879,-0.573 1.258,-0.905c1.554,-1.306 2.695,-2.855 3.68,-4.436c0.985,-1.585 1.768,-3.241 2.491,-4.908c1.43,-3.34 2.506,-6.773 3.447,-10.225c1.849,-6.914 3.147,-13.93 4.054,-20.984c-1.389,6.97 -3.168,13.865 -5.459,20.552c-1.159,3.334 -2.451,6.624 -4.04,9.72c-0.798,1.542 -1.649,3.056 -2.639,4.428c-0.983,1.367 -2.092,2.632 -3.334,3.528c-0.306,0.235 -0.638,0.387 -0.948,0.59c-0.357,0.168 -0.718,0.345 -1.092,0.499c-0.754,0.298 -1.53,0.565 -2.338,0.777c-1.61,0.435 -3.296,0.726 -5.014,0.964c-3.439,0.474 -6.995,0.722 -10.634,1.299c-3.611,0.6 -7.469,1.442 -10.998,3.836c-0.884,0.601 -1.719,1.321 -2.469,2.132l0.217,-161.127Zm146.735,214.073c1.398,-22.955 5.794,-37.867 10.814,-41.613c0.436,-0.327 0.84,-0.747 1.219,-1.237c-0.264,3.467 -0.569,7.111 -0.888,10.912c-1.427,16.955 -3.114,37.152 -2.109,57.062c-3.875,-0.748 -9.116,-5.399 -9.036,-25.124m-9.778,53.25c0.526,-2.632 1.021,-5.266 1.489,-7.901c0.193,-1.091 0.371,-2.181 0.559,-3.27c1.435,2.836 3.171,4.699 5.024,5.788c-0.043,0.875 -0.138,1.741 -0.307,2.583c-0.311,1.445 -0.851,2.824 -1.677,4.008c-0.814,1.222 -2.025,2.035 -3.363,2.728c-0.933,0.44 -1.897,0.82 -2.872,1.176c0.435,-1.715 0.782,-3.403 1.147,-5.112m-62.34,134.396c1.843,-0.928 1.98,-1.826 2.028,-2.17c0.016,-0.108 0.028,-0.406 0.038,-0.856c1.039,-0.303 2.145,-0.762 3.245,-1.365l0.984,9.734c-0.728,2.408 -1.688,4.821 -2.134,5.374c-0.571,0.104 -2.381,-0.51 -3.618,-1.332c-0.07,-3.641 -0.331,-7.529 -0.543,-9.385m-9.925,4.316l3.745,-2.295l0,-2.88l3.413,1.667c0.353,2.85 0.479,11.409 0.298,14.245c-1.409,0.047 -4.199,-0.073 -5.539,-0.131c-0.866,-0.038 -1.37,-0.058 -1.697,-0.066c0.128,-2.746 0.054,-6.265 -0.22,-10.54m-9.202,3.44c2.634,-1.63 4.116,-3.067 4.418,-4.289l1.845,0.974c0.4,6.411 0.335,13.672 -0.404,15.09c-0.854,0.354 -3.244,-0.015 -5.328,-0.639l-0.531,-11.136Zm-7.037,3.082c0.269,-0.059 0.529,-0.13 0.763,-0.24c0.996,-0.468 1.637,-1.359 1.808,-2.509c0.076,-0.515 0.132,-1.287 0.171,-2.233l1.34,1.651l0.688,14.462c-0.668,1.024 -1.496,2 -1.912,2.247c-0.56,-0.107 -2.005,-0.762 -3.451,-1.551c0.14,-2.434 0.33,-6.145 0.593,-11.827m8.6,-8.048c-0.279,0.442 -1.434,1.373 -2.748,2.231l-3.043,-3.751c-0.021,-6.637 -0.425,-15.981 -1.007,-21.082c0.85,-1.712 2.039,-3.375 2.645,-3.69c0.849,0.544 2.263,2.822 3.181,4.835c0.406,7.684 1.008,19.831 0.972,21.457m8.442,-22.411l0,19.994l-2.381,1.461l-3.19,-1.681c-0.186,-5.216 -0.724,-15.494 -0.899,-18.797c1.259,-2.098 2.96,-4.076 3.616,-4.175l0.004,0c0.494,0 1.856,1.442 2.85,3.198m8.236,-2.344c0.039,6.729 0.073,17.057 0.017,19.079c-0.29,0.188 -0.84,0.444 -1.414,0.658l-3.897,-1.902l0,-16.232l-0.17,-0.321c-0.092,-0.175 -0.221,-0.41 -0.378,-0.677c1.252,-1.887 2.571,-3.593 3.303,-4.293c0.619,0.653 1.652,2.15 2.539,3.688m4.21,-7.491c0.63,1.667 1.315,3.202 1.953,4.628c1.28,2.86 2.387,5.33 2.387,7.526c0,5.814 -3.77,7.341 -5.564,7.739c-0.002,-4.405 -0.03,-9.711 -0.047,-12.803l-0.002,-0.378l-0.185,-0.33c-0.418,-0.747 -0.805,-1.389 -1.165,-1.953c0.902,-1.731 1.885,-3.384 2.623,-4.429m-36.705,35.587l-0.022,0.001c-1.299,-0.601 -2.642,-1.299 -3.904,-2.035l0,-24.469c1.32,-3.918 3.312,-7.711 4.14,-8.016c1.426,0.032 4.389,3.932 5.484,6.341c0.787,2.118 1.883,24.965 1.181,29.706c-0.032,0.223 -0.083,0.247 -0.148,0.277c-0.919,0.43 -3.45,-0.323 -6.267,-1.583l-0.464,-0.222Zm-7.642,3.585l7.052,-0.587c0.182,0.082 0.367,0.164 0.553,0.243l4.283,2.046c-0.263,5.644 -0.678,13.842 -0.827,15.15c-0.625,1.322 -3.712,6.569 -5.392,8.482c-1.763,-2.706 -5.573,-9.231 -5.689,-10.49c0.159,-1.583 0.063,-11.104 0.02,-14.844m-2.975,-2.703l0.001,0.069c-1.041,0.127 -1.987,0.215 -2.446,0.236c-0.731,-0.231 -3.533,-1.425 -6.223,-2.62c-0.145,-5.44 -0.623,-18.438 -1.945,-22.11c0.27,-0.27 0.583,-0.609 0.976,-1.032c1.763,-1.904 5.039,-5.457 7.325,-4.956c2.69,0.585 4.771,4.255 5.469,5.885c0.247,6.847 0.557,16.913 0.592,21.763l0,1.514c-0.003,0.257 -0.007,0.482 -0.012,0.667c-0.535,0.166 -1.421,0.329 -2.368,0.47l-1.369,0.114Zm-11.102,1.83c0.741,-0.242 1.277,-0.424 1.491,-0.496l1.015,-0.346l-0.001,-0.056c5.246,2.311 5.707,2.318 6.014,2.318c0.032,0 1.163,-0.025 2.622,-0.171c0.059,5.093 0.098,11.65 0.017,13.685c-2.161,2.209 -4.625,4.605 -5.826,5.619c-1.554,-1.681 -4.91,-6.405 -5.196,-7.422c-0.249,-0.971 -0.17,-7.436 0.05,-13.124l-0.186,-0.007Zm-2.821,13.136c-1.695,2.337 -3.687,4.882 -4.621,5.81c-0.881,-0.693 -2.493,-2.716 -3.236,-3.647c-0.71,-0.892 -1.138,-1.424 -1.477,-1.759c-0.34,-1.16 -0.563,-5.939 -0.604,-10.403c0.021,0 0.041,0.001 0.062,0.001c2.1,0 6.533,-1.222 9.909,-2.256c-0.114,3.186 -0.3,9.711 -0.033,12.254m147.044,-241.07c1.111,-13.21 2.069,-24.617 1.602,-33.231c-0.434,-7.986 -1.481,-15.871 -3.093,-23.603c-0.005,-0.026 -0.008,-0.056 -0.013,-0.08l-0.004,0c-6.411,-30.667 -21.88,-58.9 -44.831,-81.207c-29.972,-29.131 -70.478,-46.504 -117.394,-50.415l0,-0.003l-4.022,-0.923l-0,522.741l2.987,0.774l0.03,0.003l0.304,0.027l0,-0.005c3.184,0.27 6.355,0.41 9.514,0.41c16.166,-0.001 31.97,-3.543 47.134,-10.58c1.707,-0.795 3.369,-3.039 6.159,-6.94c1.237,-1.73 3.097,-4.33 3.828,-4.914c31.005,-15.718 63.534,-38.848 64.358,-50.392c0.304,-4.252 0.304,-14.365 0.305,-27.17c0.001,-23.402 0.006,-66.861 2.898,-71.887c13.4,-12.167 21.282,-26.024 25.719,-39.592c0.297,-0.615 0.511,-1.123 0.599,-1.472c0.082,-0.327 0.138,-0.663 0.177,-1.005c5.536,-18.601 4.787,-36.422 3.115,-48.303c-3.41,-24.239 -1.172,-50.851 0.628,-72.233" style="fill:#030405;fill-rule:nonzero;"/></svg>